<?xml version="1.0" encoding="UTF-8"?>
<svg id="Layer_1" data-name="Layer 1" xmlns="http://www.w3.org/2000/svg" viewBox="0 0 518.28 200">
  <defs>
    <style>
      .cls-1 {
        font-size: 25.37px;
        letter-spacing: -.05em;
      }

      .cls-1, .cls-2, .cls-3 {
        fill: #c22026;
      }

      .cls-1, .cls-3 {
        font-family: MyriadPro-Regular, 'Myriad Pro';
      }

      .cls-4 {
        letter-spacing: -.05em;
      }

      .cls-3 {
        font-size: 135.69px;
      }

      .cls-5 {
        letter-spacing: -.05em;
      }

      .cls-6 {
        letter-spacing: -.05em;
      }
    </style>
  </defs>
  <g>
    <path class="cls-2" d="M177.27,177.96c-.1.21-.81.9-.88.9H26.21c-1.18,0-.67-2.17-.67-2.46V21.54l2.44-.47,148.62.25c.21.1.9.81.9.88v93.62l9.41-9.41-.02-86.89c-.69-4.64-4.11-7.42-8.7-7.84-47.32.9-95.02-.95-142.15-.42-7.83.09-18.01-1.5-20.34,8.25l.05,160.42c1.06,5.09,4.42,7.86,9.55,8.33,19.74,1.79,42.14-1.39,62.16,0,30.44-.85,60.9-.27,91.62-.45,2.84.12,7.81-4.92,7.81-7.39v-62.58l-9.36,9.36-.26,50.75Z"/>
    <path class="cls-2" d="M159.73,142.1c5.61-.77,6.91-4.6,9.22-9.11,1.48-2.91,2.89-6.48,4.09-9.55h-43.8c-.09-1.63,1.29-2.98,2.25-4.23,10.93-14.41,24.81-29.13,34.77-43.89,3.26-4.82,3.1-8.88-1.13-11.11-1.45-.76-3.09-1.11-4.73-1.1l-57.67.1c-3.17,0-6.17,1.66-7.68,4.45-.36.67-.61,1.34-.68,1.92-.19,1.61-.17,5.88.22,7.4.35,1.35,2.65,4.01,4.04,4.01h38.08l-1.48,2.03c-.09.11-.18.23-.27.34l-.03.04c-12.26,15.73-27.3,31.49-38.5,47.67-2.02,3.2-2.98,5.67.01,8.87,1.47,1.58,4.55,2.13,6.64,2.29,18.18,1.43,38.29-1.05,56.66-.13Z"/>
    <path class="cls-2" d="M120.44,170.28c4.99-1.09,23.16-6.58,24.35-11.84.6-2.66-.07-7.48-3.26-8.17h-45.81c-.09,1.49,2.24,2.97,3.47,4,4.62,3.89,9.61,7.75,14.45,11.37,1.08.81,5.97,4.67,6.8,4.64Z"/>
    <path class="cls-2" d="M110.57,171.52c-.54-.15-1.02-.32-1.46-.48l1.46.48s-.25-.13-.64-.33c-1.19-.64-3.92-2.2-6.91-4.52h0c-18.59-16.13-41.19-31-46.43-56.61-3.41-16.65,1.96-34.63,14.25-46.34,14.21-13.54,32.16-15.94,50.8-11.11,6.83,1.77,14.86,7.16,20.75-.25,5.55-6.99,1.32-10.66-5.01-14.15-14.17-7.8-34.01-9.67-49.63-6.08C5.56,55.68,21.95,166.14,105.63,171.61c.13,0,.23.02.23.02h0s-.03,0-.04,0c.01,0,.03,0,.04,0h0c.09,0,.18.01.28.02.28.02.55.03.82.04.12,0,.24.02.36.02h0c1.88.02,3.24-.19,3.24-.19Z"/>
  </g>
  <g>
    <text class="cls-3" transform="translate(209.38 139.82)"><tspan class="cls-4" x="0" y="0">C</tspan><tspan class="cls-6" x="71.51" y="0">r</tspan><tspan class="cls-5" x="108.42" y="0">auz</tspan></text>
    <text class="cls-1" transform="translate(448 166.96)"><tspan x="0" y="0">INDIA</tspan></text>
  </g>
</svg>